<?xml version="1.0" encoding="UTF-8" standalone="no"?>
<!DOCTYPE svg PUBLIC "-//W3C//DTD SVG 1.1//EN" "http://www.w3.org/Graphics/SVG/1.1/DTD/svg11.dtd">
<svg width="100%" height="100%" viewBox="0 0 561 512" version="1.1" xmlns="http://www.w3.org/2000/svg" xmlns:xlink="http://www.w3.org/1999/xlink" xml:space="preserve" xmlns:serif="http://www.serif.com/" style="fill-rule:evenodd;clip-rule:evenodd;stroke-linecap:round;stroke-linejoin:round;stroke-miterlimit:1.5;">
    <g transform="matrix(1,0,0,1,-2995,-8)">
        <g id="Logo" transform="matrix(1.46606,0,0,1.70191,1723.21,267.951)">
            <rect x="867.935" y="-152.69" width="381.793" height="300.272" style="fill:none;"/>
            <g id="Baum" transform="matrix(0.682102,0,0,0.587574,854.534,-177.947)">
                <path id="Hauptlinie" d="M160.921,516.963C149.758,370.872 189.46,375.127 189.46,318.015C189.46,301.506 182.4,293.533 174.412,293.533C152.565,293.533 139.156,315.585 118.753,315.585C103.722,315.585 97.07,309.534 94.641,303.379C90.554,293.022 104.135,280.774 99.614,273.088C95.093,265.402 72.488,272.033 62.542,264.498C52.596,256.963 38.17,239.654 37.876,216.695C37.581,193.737 52.65,172.931 62.952,161.452C73.253,149.973 85.821,134.232 98.569,135.164C115.429,136.397 131.019,152.153 139.423,167.306C152.584,191.038 166.869,195.191 185.239,202.994C204.225,211.059 218.227,226.897 218.227,238.17C218.227,252.104 202.967,258.417 202.728,281.705C202.618,292.469 205.658,326.365 218.705,326.365C229.804,326.365 247.082,306.697 254.872,285.788C267.243,252.587 245.097,250.992 245.097,233.232C245.097,221.728 257.002,213.943 265.893,213.943C277.418,213.943 284.555,220.975 284.645,235.901C284.724,249.037 290.4,253.055 299.642,253.055C310.257,253.055 360.442,243.944 354.132,214.091C347.319,181.853 369.51,167.448 371.348,151.61C372.988,137.475 341.881,112.785 314.851,112.785C299.713,112.785 297.826,119.517 298.177,124.691C298.503,129.502 304.236,133.727 313.479,133.727C322.722,133.727 327.997,123.783 327.997,114.54C327.997,84.962 288.277,59.967 248.823,59.967C185.638,59.967 151.929,106.5 151.929,138.449C151.929,152.291 161.372,156.935 173.027,156.935C184.681,156.935 212.61,147.491 212.61,126.795C212.61,111.311 194.928,94.043 168.003,94.043C116.711,94.043 72.068,170.003 74.278,211.272C75.22,228.853 89.454,246.886 103.364,246.886C120.291,246.886 134.998,231.4 148.419,227.748C163.405,223.67 171.718,229.839 171.606,246.749C171.473,266.65 182.511,278.51 196.408,278.773C213.048,279.087 216.165,265.499 229.688,264.959C237.537,264.645 246.785,269.404 248.897,264.187C250.789,259.516 246.56,249.811 239.735,244.551C236.592,242.129 227.496,237.347 221.257,228.22C217.133,222.187 216.875,213.539 213.623,207.487C210.042,200.824 205.921,194.22 204.451,189.889C223.892,202.678 221.439,209.081 224.732,216.281C231.038,230.068 252.444,229.827 259.582,245.087C259.582,245.087 265.241,239.16 265.241,227.469C265.241,218.339 256.754,207.625 256.754,192.515C256.754,168.172 266.618,154.388 280.223,144.934C272.189,154.082 262.058,172.568 262.058,187.693C262.058,208.304 277.567,227.558 277.567,236.56C277.567,245.561 265.076,261.046 273.216,266.929C285.558,275.847 316.754,257.059 335.865,251.807C352.979,247.104 396.985,250.59 412.196,250.786C428.721,250.998 446.917,240.322 446.917,229.728C440.271,237.189 423.05,245.803 388.084,245.803C354.327,245.803 332.305,237.685 332.305,207.947C332.305,186.745 344.361,177.807 350.63,157.553C356.899,137.299 360.798,118.559 387.964,118.559C415.13,118.559 406.149,140.573 416.857,150.319C428.821,162.283 448.098,151.639 459.143,166.089C469.225,179.279 456.992,191.391 445.174,201.482C435.919,209.383 425.69,212.374 423.016,208.996C421.045,206.506 427.001,198.019 436.026,192.315C461.12,176.453 494.333,198.394 494.333,238.197C494.333,253.182 481.292,257.806 474.244,266.599C467.661,274.813 467.362,289.742 457.717,294.725C451.92,297.72 438.237,297.402 427.306,290.008C418.453,284.019 402.163,283.866 386.925,292.106C378.443,296.693 373.022,298.688 364.936,298.688C356.426,298.688 351.35,294.694 351.35,287.621C351.35,280.548 366.658,254.679 322.051,268.172C306.465,272.887 289.651,280.625 280.989,294.354C253.771,337.488 233.46,338.752 210.229,362.952C198.619,375.045 191.402,396.463 190.285,409.121C185.689,461.203 208.449,525.626 216.647,543.184" style="fill:none;stroke:black;stroke-width:2px;"/>
                <path id="_4.-Linie" serif:id="4. Linie" d="M171.97,525.909C148.887,372.98 204.007,365.79 196.001,311.081C194.063,297.838 184.584,283.702 170.836,281.797C160.702,280.393 153.265,287.139 148.019,288.338C143.883,289.283 138.92,287.531 135.821,279.375C131.893,269.038 140.373,245.302 137.066,236.207C133.758,227.111 123.95,217.084 107.731,218.954" style="fill:none;stroke:black;stroke-width:2px;"/>
                <path id="_3.-Linie" serif:id="3. Linie" d="M183.208,531.787C151.862,389.967 203.83,347.463 221.52,335.691C240.509,323.056 256.813,309.28 261.298,294.885" style="fill:none;stroke:black;stroke-width:2px;"/>
                <path id="_2.-Linie" serif:id="2. Linie" d="M197.732,534.298C167.837,430.297 181.239,369.761 225.764,341.273C273.447,310.764 269.364,287.092 292.806,275.297" style="fill:none;stroke:black;stroke-width:2px;"/>
            </g>
            <g id="Noten" transform="matrix(0.682102,0,0,0.587574,854.534,-177.947)">
                <path id="Violinschlüssel-Kontur" serif:id="Violinschlüssel Kontur" d="M170.678,513.061C171.332,514.247 171.998,515.516 172.676,516.871C176.807,525.133 185.756,531.225 192.77,532.65C200.294,534.178 207.033,530.624 206.21,523.923C206.122,523.212 205.986,522.477 205.8,521.729C210.434,522.744 214.255,524.299 217.031,526.294C219.446,528.03 221.049,530.091 221.625,532.426C221.824,533.229 221.793,533.843 221.525,534.31C221.258,534.773 220.227,535.503 219.66,535.725C216.885,536.811 215.95,536.245 215.137,534.673C214.154,532.772 210.914,531.722 211.569,535.244C212.161,538.426 215.943,539.354 220.941,537.151C221.949,536.707 222.775,536.146 223.258,535.308C223.739,534.473 223.922,533.383 223.567,531.947C222.887,529.191 221.048,526.719 218.199,524.671C215.025,522.389 210.569,520.621 205.125,519.548C203.145,514.213 198.694,508.883 191.592,507.919C189.154,507.588 185.879,508.023 183.848,509.434C182.419,510.427 181.54,511.861 181.75,513.801C181.533,513.726 181.314,513.65 181.094,513.574C178.428,512.655 175.221,511.985 171.993,511.321C166.535,501.671 161.8,497.467 158.4,496.116C155.28,494.877 153.08,495.826 152.012,497.321C151.433,498.132 151.18,499.371 151.42,500.826C151.896,503.717 154.332,507.609 159.346,509.923C162.37,511.319 166.514,512.197 170.678,513.061ZM174.102,514.172C177.344,520.69 186.635,529.363 193.168,530.69C199.196,531.914 204.884,529.535 204.225,524.167C204.112,523.248 203.909,522.281 203.612,521.3C202.492,521.105 201.331,520.94 200.131,520.805C199.507,520.735 198.142,520.621 197.553,520.536C197.618,521.373 197.457,522.128 197.082,522.717C196.262,524.003 194.363,525.319 190.918,524.179C184.767,522.143 184.107,517.543 181.511,516.204C179.496,515.165 176.672,514.719 174.102,514.172ZM189.404,518.721C188.303,518.409 185.954,517.475 185.056,517.163C186.191,519.132 187.962,520.309 189.32,521.011C189.079,520.449 189.219,519.523 189.404,518.721ZM202.815,519.144C200.896,514.791 197.124,510.688 191.323,509.9C189.646,509.673 187.484,509.856 185.839,510.6C184.467,511.222 183.463,512.268 183.79,513.924C183.833,514.144 183.887,514.362 183.949,514.577C186.156,515.362 188.486,516.362 190.643,517.014C192.905,515.953 196.044,516.682 196.963,518.424C197.804,518.559 199.438,518.714 200.355,518.817C201.193,518.912 202.013,519.021 202.815,519.144ZM168.182,509.814C163.478,501.851 161.054,499.699 158.046,498.504C156.101,497.732 154.305,497.551 153.64,498.483C153.172,499.139 153.225,500.266 153.656,501.531C154.43,503.8 156.53,506.421 160.184,508.107C162.685,509.262 165.575,509.668 168.182,509.814Z"/>
                <path d="M176.564,482.55C176.541,480.414 176.226,477.879 174.021,476.082C171.214,473.794 168.43,473.969 165.414,474.808C162.787,475.539 159.97,476.815 156.747,476.924C156.236,476.942 155.82,477.343 155.784,477.854C155.748,478.364 156.103,478.82 156.608,478.909C162.786,479.996 175.893,482.048 182.841,489.551C186.28,492.99 183.554,494.764 185.315,497.342C186.466,499.026 190.3,500.446 191.642,498.456C193.34,495.939 190.974,492.761 189.653,491.535C186.065,488.207 180.377,484.456 176.564,482.55ZM173.632,481.323C173.515,478.711 172.511,477.012 170.572,476.46C169.073,476.033 167.549,476.29 165.95,476.735C164.734,477.073 163.477,477.515 162.162,477.914C166.027,478.723 169.897,479.866 173.632,481.323Z"/>
                <path d="M181.153,462.03C180.065,460.696 179.632,459.404 179.315,458.143C178.746,455.878 178.706,453.654 174.898,451.333C174.427,451.045 174.278,450.429 174.565,449.958C174.852,449.487 175.468,449.338 175.94,449.625C179.611,451.864 180.391,454.019 180.912,456.186C181.239,457.546 181.413,458.924 182.406,460.343C183.106,461.344 184.206,462.354 186.005,463.409C187.019,463.811 187.998,464.294 188.92,464.888C188.983,464.928 189.04,464.973 189.092,465.023L189.106,465.038C189.22,465.154 189.302,465.296 189.348,465.447L189.351,465.457C189.395,465.609 189.404,465.772 189.372,465.932L189.368,465.952C189.348,466.041 189.316,466.128 189.271,466.212L189.27,466.215C189.224,466.298 189.169,466.373 189.105,466.438L189.09,466.452C188.974,466.566 188.832,466.648 188.681,466.694L188.671,466.697C188.519,466.741 188.356,466.75 188.196,466.718L188.176,466.714C188.106,466.699 188.037,466.675 187.97,466.644C186.85,466.145 185.883,465.652 185.045,465.165C181.385,463.741 177.23,463.46 173.653,462.718C169.658,461.889 166.795,460.319 164.832,456.996C163.729,455.129 163.504,452.594 165.171,451.879C167.642,450.818 169.225,453.31 169.49,455.018C170.042,458.58 168.825,459.674 174.059,460.76C176.292,461.223 178.734,461.534 181.153,462.03Z"/>
                <g transform="matrix(0.712832,0.701335,-0.701335,0.712832,417.942,-95.2111)">
                    <path d="M181.153,462.03C180.065,460.696 179.632,459.404 179.315,458.143C178.746,455.878 178.706,453.654 174.898,451.333C174.427,451.045 174.278,450.429 174.565,449.958C174.852,449.487 175.468,449.338 175.94,449.625C179.611,451.864 180.391,454.019 180.912,456.186C181.239,457.546 181.531,460.575 186.005,463.409C186.986,464.03 189.04,464.973 189.092,465.023L189.106,465.038C189.22,465.154 188.452,466.647 188.452,466.647L188.177,466.714L188.176,466.714C188.176,466.714 185.883,465.652 185.045,465.165C181.385,463.741 177.23,463.46 173.653,462.718C169.658,461.889 166.795,460.319 164.832,456.996C163.729,455.129 163.504,452.594 165.171,451.879C167.642,450.818 169.225,453.31 169.49,455.018C170.042,458.58 168.825,459.674 174.059,460.76C176.292,461.223 178.734,461.534 181.153,462.03Z"/>
                </g>
                <g transform="matrix(0.790209,0.612837,-0.612837,0.790209,364.52,-96.7557)">
                    <path d="M157.156,396.884C155.933,400.156 157.12,403.289 162.981,405.657C166.34,407.015 170.49,407.812 174.047,410.958C173.932,412.688 176.78,432.328 177.018,435.79C173.377,433.596 169.558,432.856 166.284,431.642C163.962,430.781 163.053,429.478 163.316,427.987C163.477,427.074 163.804,426.852 163.338,425.579C162.549,423.422 159.276,421.712 158.504,425.407C158.128,427.204 159.799,429.479 160.471,430.278C161.746,431.794 163.523,432.752 165.588,433.517C169.284,434.888 173.973,435.623 177.896,438.748C178.241,439.022 179.546,438.321 179.487,437.884C179.082,434.875 175.612,414.646 175.994,410.246C173.81,407.918 167.301,405.246 163.73,403.803C162.268,403.212 161.998,402.415 161.983,400.9C161.975,400.052 161.974,398.314 161.614,397.312C161.155,396.037 160.987,395.369 160.064,395.293C158.29,395.149 157.46,396.069 157.156,396.884Z"/>
                </g>
                <g transform="matrix(1,0,0,1,7.30719,-32.1053)">
                    <path d="M166.884,414.951C166.285,416.83 166.838,421.031 172.699,423.399C176.058,424.757 180.19,425.823 181.875,427.373C181.569,428.944 180.374,435.639 179.257,438.198C175.616,436.003 169.558,432.856 166.284,431.642C162.361,430.188 162.788,428.931 162.965,428.082C163.155,427.175 163.637,425.446 163.28,424.138C162.828,422.488 161.418,421.317 159.513,421.968C158.835,422.2 158.426,422.856 158.248,423.706C157.659,426.528 159.799,429.479 160.471,430.278C161.746,431.794 163.523,432.752 165.588,433.517C169.284,434.888 180.654,440.717 180.654,440.717C180.979,438.007 183.694,428.336 184.018,426.607C181.389,424.597 177.019,422.988 173.448,421.545C169.932,420.124 172.292,418.566 172.197,416.645C172.119,415.052 171.248,414.08 170.412,413.681C168.801,412.914 167.26,413.771 166.884,414.951Z"/>
                </g>
                <g transform="matrix(0.955992,-0.293392,0.293392,0.955992,-117.806,69.1674)">
                    <path d="M164.209,410.808C163.611,412.687 164.061,414.75 168.955,418.751C171.592,420.908 177.477,423.468 179.162,425.019C177.893,428.167 175.962,431.285 174.174,436.033C170.533,433.838 169.558,432.856 166.284,431.642C162.361,430.188 162.788,428.931 162.965,428.082C163.155,427.175 163.637,425.446 163.28,424.138C162.828,422.488 161.418,421.317 159.513,421.968C158.835,422.2 158.426,422.856 158.248,423.706C157.659,426.528 159.799,429.479 160.471,430.278C161.746,431.794 163.523,432.752 165.588,433.517C169.284,434.888 175.571,438.552 175.571,438.552C177.711,432.48 179.795,428.143 181.424,424.289C178.795,422.28 172.664,419.445 169.704,416.897C166.83,414.422 169.617,414.423 169.523,412.502C169.445,410.909 168.574,409.937 167.737,409.538C166.127,408.771 164.585,409.628 164.209,410.808Z"/>
                </g>
                <g transform="matrix(-0.993145,-0.116891,0.116891,-0.993145,308.303,805.605)">
                    <path d="M166.267,414.567C165.669,416.446 166.222,420.646 172.082,423.015C175.442,424.372 180.19,425.823 181.875,427.373C181.569,428.944 180.232,435.07 179.115,437.63C175.474,435.435 168.202,432.145 164.928,430.932C161.006,429.477 161.432,428.221 161.61,427.371C161.799,426.464 162.282,424.735 161.924,423.428C161.473,421.777 160.063,420.606 158.158,421.257C157.48,421.489 157.071,422.146 156.893,422.996C156.304,425.818 158.444,428.768 159.116,429.567C160.391,431.084 162.168,432.041 164.233,432.807C167.929,434.177 180.512,440.149 180.512,440.149C180.837,437.439 183.694,428.336 184.018,426.607C181.389,424.597 176.403,422.604 172.832,421.16C169.316,419.739 171.675,418.182 171.581,416.26C171.503,414.668 170.632,413.696 169.795,413.297C168.185,412.529 166.643,413.386 166.267,414.567Z"/>
                </g>
                <path d="M248.365,329.584C246.119,332.857 244.092,336.352 242.219,339.768C240.983,337.768 239.859,336.337 238.849,334.705C237.546,332.6 237.93,331.681 239.052,330.664C239.738,330.041 240.477,329.395 240.556,328.042C240.65,326.424 238.787,324.267 236.83,325.932C235.432,327.123 235.051,329.022 235.093,330.065C235.171,332.045 235.988,333.89 237.151,335.761C238.311,337.627 239.911,339.399 241.307,341.446C239.183,345.384 237.253,349.149 235.419,352.263C234.093,350.074 232.591,348.164 231.393,346.237C230.086,344.134 230.166,342.547 231.288,341.529C231.974,340.907 232.368,340.932 232.781,339.641C233.479,337.452 231.941,334.095 229.066,336.542C227.668,337.732 227.595,340.554 227.636,341.597C227.714,343.576 228.532,345.422 229.694,347.292C231.775,350.64 235.03,354.095 236.214,358.968C236.318,359.396 237.78,359.642 238.001,359.261C239.525,356.635 249.18,338.523 252.179,335.28C251.879,332.102 248.373,326.002 246.436,322.673C245.643,321.31 245.918,320.515 246.835,319.308C247.348,318.633 248.412,317.26 248.741,316.247C249.16,314.958 249.437,314.327 248.754,313.702C247.441,312.5 246.221,312.72 245.481,313.177C242.51,315.013 241.528,318.216 244.707,323.679C245.786,325.532 247.204,327.401 248.365,329.584ZM242.482,343.359C240.407,347.267 238.513,351.006 236.535,354.285C236.822,354.864 237.091,355.466 237.333,356.093C238.239,354.743 240.868,350.238 243.524,345.697C243.234,344.868 242.88,344.093 242.482,343.359ZM249.34,331.683C247.085,335.009 245.143,338.415 243.355,341.729C243.729,342.42 244.113,343.177 244.506,344.018C247.175,339.463 249.658,335.264 250.204,334.649C250.003,333.589 249.704,332.606 249.34,331.683Z"/>
            </g>
            <g id="Trio-Sophora" serif:id="Trio Sophora" transform="matrix(0.457101,0,0,0.393754,890.948,-79.8013)">
                <g transform="matrix(1.61538,0,0,1.61538,-164.359,158.302)">
                    <g transform="matrix(106.476,0,0,106.476,417.08,121.072)">
                        <path d="M0.603,-0.558C0.638,-0.566 0.674,-0.57 0.705,-0.57C0.782,-0.57 0.837,-0.537 0.837,-0.516C0.837,-0.504 0.822,-0.499 0.787,-0.499C0.72,-0.503 0.661,-0.526 0.603,-0.558ZM0.589,0.147C0.692,0.147 0.78,0.104 0.851,0.031L0.837,0.017C0.77,0.086 0.686,0.127 0.589,0.127C0.407,0.127 0.256,-0.021 0.256,-0.203C0.256,-0.391 0.409,-0.509 0.575,-0.551C0.643,-0.512 0.715,-0.479 0.796,-0.479C0.838,-0.479 0.858,-0.494 0.858,-0.513C0.858,-0.546 0.802,-0.59 0.705,-0.59C0.666,-0.59 0.621,-0.583 0.578,-0.573C0.484,-0.627 0.375,-0.704 0.263,-0.704C0.146,-0.704 0.018,-0.629 0.018,-0.5C0.018,-0.452 0.039,-0.418 0.075,-0.388L0.088,-0.403C0.057,-0.429 0.038,-0.458 0.038,-0.5C0.038,-0.618 0.157,-0.684 0.263,-0.684C0.363,-0.684 0.467,-0.615 0.551,-0.565C0.382,-0.517 0.236,-0.392 0.236,-0.203C0.236,-0.01 0.396,0.147 0.589,0.147Z" style="fill-rule:nonzero;"/>
                    </g>
                    <g transform="matrix(106.476,0,0,106.476,461.588,114.881)">
                        <path d="M0.032,-0L0.178,-0L0.178,-0.02L0.115,-0.02L0.115,-0.145C0.151,-0.185 0.208,-0.222 0.262,-0.222C0.281,-0.222 0.296,-0.215 0.296,-0.196C0.296,-0.183 0.289,-0.169 0.283,-0.159L0.3,-0.149C0.308,-0.162 0.316,-0.179 0.316,-0.196C0.316,-0.23 0.287,-0.241 0.262,-0.241C0.206,-0.241 0.153,-0.21 0.115,-0.173L0.115,-0.228L0.034,-0.228L0.034,-0.209L0.095,-0.209L0.095,-0.02L0.032,-0.02L0.032,-0Z" style="fill-rule:nonzero;"/>
                    </g>
                    <g transform="matrix(106.476,0,0,106.476,495.234,114.881)">
                        <path d="M0.032,-0L0.174,-0L0.174,-0.02L0.113,-0.02L0.113,-0.229L0.036,-0.229L0.036,-0.209L0.093,-0.209L0.093,-0.02L0.032,-0.02L0.032,-0ZM0.092,-0.258C0.109,-0.258 0.123,-0.272 0.123,-0.289C0.123,-0.306 0.109,-0.32 0.092,-0.32C0.075,-0.32 0.061,-0.306 0.061,-0.289C0.061,-0.272 0.075,-0.258 0.092,-0.258Z" style="fill-rule:nonzero;"/>
                    </g>
                    <g transform="matrix(106.476,0,0,106.476,515.039,114.881)">
                        <path d="M0.181,-0.222C0.241,-0.222 0.311,-0.183 0.311,-0.116C0.311,-0.049 0.241,-0.01 0.181,-0.01C0.121,-0.01 0.052,-0.049 0.052,-0.116C0.052,-0.183 0.121,-0.222 0.181,-0.222ZM0.181,-0.242C0.11,-0.242 0.032,-0.194 0.032,-0.116C0.032,-0.038 0.11,0.01 0.181,0.01C0.252,0.01 0.33,-0.038 0.33,-0.116C0.33,-0.194 0.252,-0.242 0.181,-0.242Z" style="fill-rule:nonzero;"/>
                    </g>
                </g>
                <g transform="matrix(1.61538,0,0,1.61538,-388.437,264.162)">
                    <g transform="matrix(106.476,0,0,106.476,417.08,114.881)">
                        <path d="M0.523,-0.469L0.542,-0.472L0.524,-0.623L0.505,-0.621L0.513,-0.548C0.469,-0.609 0.384,-0.64 0.31,-0.64C0.206,-0.64 0.077,-0.576 0.077,-0.457C0.077,-0.213 0.583,-0.267 0.583,0.019C0.583,0.161 0.443,0.249 0.313,0.249C0.193,0.249 0.038,0.198 0.038,0.054C0.038,-0.025 0.116,-0.074 0.188,-0.074C0.239,-0.074 0.292,-0.05 0.321,-0.006L0.337,-0.017C0.306,-0.067 0.246,-0.094 0.188,-0.094C0.105,-0.094 0.018,-0.036 0.018,0.054C0.018,0.21 0.182,0.269 0.313,0.269C0.454,0.269 0.603,0.172 0.603,0.019C0.603,-0.283 0.097,-0.232 0.097,-0.457C0.097,-0.564 0.218,-0.621 0.31,-0.621C0.4,-0.621 0.511,-0.571 0.523,-0.469Z" style="fill-rule:nonzero;"/>
                    </g>
                    <g transform="matrix(106.476,0,0,106.476,481.073,114.881)">
                        <path d="M0.181,-0.222C0.241,-0.222 0.311,-0.183 0.311,-0.116C0.311,-0.049 0.241,-0.01 0.181,-0.01C0.121,-0.01 0.052,-0.049 0.052,-0.116C0.052,-0.183 0.121,-0.222 0.181,-0.222ZM0.181,-0.242C0.11,-0.242 0.032,-0.194 0.032,-0.116C0.032,-0.038 0.11,0.01 0.181,0.01C0.252,0.01 0.33,-0.038 0.33,-0.116C0.33,-0.194 0.252,-0.242 0.181,-0.242Z" style="fill-rule:nonzero;"/>
                    </g>
                    <g transform="matrix(106.476,0,0,106.476,517.488,114.881)">
                        <path d="M0.095,-0.156C0.117,-0.197 0.163,-0.219 0.208,-0.219C0.268,-0.219 0.332,-0.178 0.332,-0.113C0.332,-0.047 0.268,-0.007 0.208,-0.007C0.163,-0.007 0.117,-0.029 0.095,-0.069L0.095,-0.156ZM0.076,0.296L0.149,0.296L0.149,0.276L0.139,0.276C0.115,0.276 0.095,0.256 0.095,0.232L0.095,-0.035C0.124,-0.003 0.166,0.013 0.208,0.013C0.279,0.013 0.352,-0.036 0.352,-0.113C0.352,-0.189 0.279,-0.238 0.208,-0.238C0.164,-0.238 0.12,-0.22 0.092,-0.186C0.083,-0.211 0.06,-0.228 0.032,-0.228L0.032,-0.209C0.056,-0.209 0.076,-0.189 0.076,-0.165L0.076,0.296Z" style="fill-rule:nonzero;"/>
                    </g>
                    <g transform="matrix(106.476,0,0,106.476,556.245,114.881)">
                        <path d="M0.032,-0L0.168,-0L0.168,-0.02L0.11,-0.02L0.11,-0.148C0.117,-0.197 0.193,-0.222 0.235,-0.222C0.273,-0.222 0.315,-0.193 0.315,-0.152C0.315,-0.14 0.311,-0.127 0.305,-0.114L0.259,-0.02L0.259,-0L0.358,-0L0.358,-0.02L0.282,-0.02L0.323,-0.106C0.33,-0.121 0.335,-0.137 0.335,-0.153C0.335,-0.203 0.284,-0.241 0.235,-0.241C0.194,-0.241 0.139,-0.224 0.11,-0.19L0.11,-0.534C0.11,-0.569 0.081,-0.597 0.046,-0.597L0.046,-0.578C0.07,-0.578 0.09,-0.558 0.09,-0.534L0.09,-0.02L0.032,-0.02L0.032,-0Z" style="fill-rule:nonzero;"/>
                    </g>
                    <g transform="matrix(106.476,0,0,106.476,595.641,114.881)">
                        <path d="M0.181,-0.222C0.241,-0.222 0.311,-0.183 0.311,-0.116C0.311,-0.049 0.241,-0.01 0.181,-0.01C0.121,-0.01 0.052,-0.049 0.052,-0.116C0.052,-0.183 0.121,-0.222 0.181,-0.222ZM0.181,-0.242C0.11,-0.242 0.032,-0.194 0.032,-0.116C0.032,-0.038 0.11,0.01 0.181,0.01C0.252,0.01 0.33,-0.038 0.33,-0.116C0.33,-0.194 0.252,-0.242 0.181,-0.242Z" style="fill-rule:nonzero;"/>
                    </g>
                    <g transform="matrix(106.476,0,0,106.476,632.056,114.881)">
                        <path d="M0.032,-0L0.178,-0L0.178,-0.02L0.115,-0.02L0.115,-0.145C0.151,-0.185 0.208,-0.222 0.262,-0.222C0.281,-0.222 0.296,-0.215 0.296,-0.196C0.296,-0.183 0.289,-0.169 0.283,-0.159L0.3,-0.149C0.308,-0.162 0.316,-0.179 0.316,-0.196C0.316,-0.23 0.287,-0.241 0.262,-0.241C0.206,-0.241 0.153,-0.21 0.115,-0.173L0.115,-0.228L0.034,-0.228L0.034,-0.209L0.095,-0.209L0.095,-0.02L0.032,-0.02L0.032,-0Z" style="fill-rule:nonzero;"/>
                    </g>
                    <g transform="matrix(106.476,0,0,106.476,663.36,114.881)">
                        <path d="M0.166,-0.145C0.207,-0.145 0.267,-0.133 0.267,-0.083C0.267,-0.03 0.191,-0.01 0.151,-0.01C0.112,-0.01 0.052,-0.031 0.052,-0.077C0.052,-0.129 0.13,-0.145 0.166,-0.145ZM0.032,-0.077C0.032,-0.015 0.105,0.01 0.155,0.01C0.205,0.01 0.272,-0.014 0.285,-0.069C0.31,-0.028 0.332,0 0.382,0L0.382,-0.02C0.272,-0.02 0.286,-0.228 0.142,-0.228L0.062,-0.228L0.062,-0.209L0.142,-0.209C0.184,-0.209 0.213,-0.184 0.235,-0.153C0.218,-0.16 0.196,-0.165 0.169,-0.165C0.113,-0.165 0.032,-0.139 0.032,-0.077Z" style="fill-rule:nonzero;"/>
                    </g>
                </g>
            </g>
        </g>
    </g>
</svg>
